<svg xmlns="http://www.w3.org/2000/svg" viewBox="0 0 111 36.7"><g transform="translate(-16,-15.7)"><polygon points="16,16 30,24 30,40 16,32" fill="#00AFD1"/><polygon points="32,24 46,32 46,48 32,40" fill="#4AE1FF"/><polygon points="18,34 32,42 32,52 18,44" fill="#00AFD1" opacity="0.55"/></g><g transform="translate(-8,0)" fill="#ffffff"><path d="M52.5,22.3c0.3,2,2,3.4,4.8,3.4c1.5,0,3.4-0.5,4.3-1.5l2.5,2.5c-1.7,1.7-4.4,2.6-6.9,2.6c-5.5,0-8.8-3.4-8.8-8.4c0-4.8,3.3-8.3,8.5-8.3c5.3,0,8.7,3.3,8.1,9.8H52.5z M61.2,19.1c-0.3-2-1.9-3.1-4.1-3.1c-2.1,0-3.9,1-4.5,3.1H61.2z"/><path d="M81.7,26.8c-1.8,1.8-3.8,2.5-6.1,2.5c-4.6,0-8.5-2.8-8.5-8.4c0-5.6,3.9-8.4,8.5-8.4c2.3,0,4,0.6,5.8,2.3l-2.5,2.6c-0.9-0.8-2.1-1.2-3.2-1.2C73,16.3,71,18.2,71,21c0,3,2.1,4.6,4.5,4.6c1.3,0,2.5-0.4,3.5-1.3L81.7,26.8z"/><path d="M87.4,6.4v8.8c1.4-1.8,3.2-2.4,5-2.4c4.5,0,6.5,3,6.5,7.7v8.3H95v-8.3c0-2.9-1.5-4.1-3.6-4.1c-2.3,0-3.9,2-3.9,4.3v8.1h-3.9V6.4H87.4z"/><path d="M118.1,21c0,4.5-3.1,8.2-8.3,8.2c-5.2,0-8.3-3.7-8.3-8.2c0-4.5,3.2-8.2,8.3-8.2S118.1,16.5,118.1,21z M105.5,21c0,2.4,1.5,4.6,4.3,4.6c2.9,0,4.3-2.2,4.3-4.6c0-2.4-1.7-4.7-4.3-4.7C107,16.3,105.5,18.6,105.5,21z"/></g></svg>
